<svg width="20" height="20" viewBox="0 0 20 20" fill="none" xmlns="http://www.w3.org/2000/svg">
<path d="M17.7778 0H2.22222C1 0 0 1 0 2.22222V17.7778C0 19.0011 1 20 2.22222 20H17.7778C19 20 20 19.0011 20 17.7778V2.22222C20 1 19 0 17.7778 0ZM9.98222 16.1367C11.6143 16.1364 13.1794 15.4878 14.3334 14.3337C15.4873 13.1795 16.1356 11.6143 16.1356 9.98222C16.1356 9.60667 16.0878 9.24444 16.0211 8.88889H17.7778V16.9067C17.7778 17.0076 17.7578 17.1076 17.7191 17.2008C17.6804 17.2941 17.6236 17.3787 17.552 17.45C17.4805 17.5212 17.3956 17.5776 17.3022 17.6159C17.2088 17.6543 17.1087 17.6738 17.0078 17.6733H2.99222C2.89126 17.6738 2.79121 17.6543 2.69781 17.6159C2.60441 17.5776 2.5195 17.5212 2.44795 17.45C2.37641 17.3787 2.31964 17.2941 2.2809 17.2008C2.24216 17.1076 2.22222 17.0076 2.22222 16.9067V8.88889H3.94333C3.87556 9.24444 3.82778 9.60667 3.82778 9.98222C3.82807 11.6144 4.47658 13.1796 5.6307 14.3337C6.78482 15.4879 8.35005 16.1364 9.98222 16.1367ZM6.13667 9.98222C6.13667 9.47722 6.23614 8.97716 6.42939 8.51059C6.62265 8.04403 6.90591 7.6201 7.263 7.263C7.6201 6.90591 8.04403 6.62265 8.51059 6.42939C8.97716 6.23614 9.47722 6.13667 9.98222 6.13667C10.4872 6.13667 10.9873 6.23614 11.4539 6.42939C11.9204 6.62265 12.3443 6.90591 12.7014 7.263C13.0585 7.6201 13.3418 8.04403 13.5351 8.51059C13.7283 8.97716 13.8278 9.47722 13.8278 9.98222C13.8278 11.0021 13.4226 11.9803 12.7014 12.7014C11.9803 13.4226 11.0021 13.8278 9.98222 13.8278C8.96232 13.8278 7.98419 13.4226 7.263 12.7014C6.54182 11.9803 6.13667 11.0021 6.13667 9.98222ZM17.0078 5.55556H15.2133C15.0096 5.55497 14.8144 5.47377 14.6703 5.32971C14.5262 5.18564 14.445 4.99041 14.4444 4.78667V2.99C14.4444 2.56556 14.7889 2.22222 15.2122 2.22222H17.0067C17.4333 2.22222 17.7778 2.56556 17.7778 2.99V4.78556C17.7778 5.20889 17.4333 5.55556 17.0078 5.55556Z" fill="white"/>
</svg>
