<svg width="21" height="13" viewBox="0 0 21 13" fill="none" xmlns="http://www.w3.org/2000/svg">
<path fill-rule="evenodd" clip-rule="evenodd" d="M18.9534 0.640625H16.8634C16.332 0.640625 16.087 0.924619 15.9542 1.23772C15.9542 1.23772 14.8914 3.85505 13.3857 5.5551C12.8986 6.04722 12.6772 6.20393 12.4114 6.20393C12.2786 6.20393 12.0864 6.04722 12.0864 5.59989V1.41675C12.0864 0.879826 11.932 0.640625 11.4892 0.640625H8.20498C7.87297 0.640625 7.67323 0.88978 7.67323 1.12596C7.67323 1.63498 8.42592 1.75232 8.50355 3.1839V6.29321C8.50355 6.97507 8.38173 7.09859 8.116 7.09859C7.4075 7.09859 5.68402 4.4698 4.66187 1.46154C4.46153 0.876809 4.2606 0.640625 3.72646 0.640625H1.63648C1.03935 0.640625 0.919922 0.924619 0.919922 1.23772C0.919922 1.79696 1.62842 4.57085 4.21895 8.23954C5.94601 10.7448 8.37934 12.103 10.5935 12.103C11.922 12.103 12.0864 11.8013 12.0864 11.2817V9.38819C12.0864 8.78491 12.2122 8.66456 12.6329 8.66456C12.9428 8.66456 13.4743 8.82111 14.7142 10.029C16.1312 11.4606 16.365 12.103 17.162 12.103H19.252C19.8491 12.103 20.1477 11.8013 19.9754 11.206C19.787 10.6127 19.1103 9.75197 18.2127 8.73152C17.7256 8.14996 16.9948 7.52375 16.7734 7.2105C16.4634 6.80796 16.552 6.62879 16.7734 6.27089C16.7734 6.27089 19.3198 2.64714 19.5855 1.41675C19.7184 0.969413 19.5855 0.640625 18.9534 0.640625Z" fill="white"/>
</svg>
